<?xml version="1.0" encoding="UTF-8"?>
<!-- Created with Inkscape (http://www.inkscape.org/) -->
<svg width="118.13mm" height="49.209mm" version="1.1" viewBox="0 0 118.13 49.209" xml:space="preserve" xmlns="http://www.w3.org/2000/svg"><g transform="translate(.067611 .067611)"><g transform="matrix(.82163 0 0 .82163 20.665 -9.8231)" fill="#616262"><g transform="scale(1.1653 .85815)" stroke-width=".69956" style="font-variation-settings:'wdth' 75, 'wght' 500" aria-label="IPyTONE"><path d="m22.027 54.922v-1.8272h2.5907v-13.308h-2.4817v-1.8544h7.0359v1.8544h-2.5907v13.336h2.7271v1.7999z"/><path d="m32.417 54.922v-16.99h4.3906q1.5544 0 2.5362 0.59996 1.009 0.59996 1.4999 1.6908t0.49088 2.5362q0 1.0636-0.29998 1.9635-0.27271 0.87267-0.81813 1.5272-0.54542 0.62723-1.3908 0.98176-0.81813 0.32725-1.909 0.32725h-2.4544v7.3632zm2.0453-9.2449h2.2635q0.87267 0 1.4454-0.35452t0.8454-1.009 0.27271-1.4999q0-0.89994-0.29998-1.5544-0.27271-0.6545-0.81813-1.009-0.54542-0.38179-1.4181-0.38179h-2.2908z"/><path d="m44.989 59.667q-0.70905 0-1.309-0.27271-0.57269-0.24544-1.0363-0.79086l0.73632-1.5817 0.10908-0.24544 0.1909 0.10908q0.08181 0.1909 0.1909 0.38179 0.10908 0.21817 0.43634 0.49088 0.16363 0.05454 0.35452 0.08181 0.1909 0.05454 0.38179 0.05454 0.54542 0 0.89994-0.35452t0.59996-1.0636q0.27271-0.70905 0.54542-1.7726l1.9908-7.4177q0.32725-1.2272 0.59996-2.4544 0.29998-1.2272 0.38179-2.4544h1.9362q-0.13636 1.2545-0.49088 2.5635-0.32725 1.309-0.70905 2.5907l-2.4817 8.754q-0.54542 1.8544-1.4181 2.618-0.8454 0.76359-1.909 0.76359zm-1.909-17.29h2.0453l3.1634 10.281-1.0363 2.618z"/><path d="m57.397 54.922v-15.108h-3.7089v-1.909h9.5721v1.909h-3.8725v15.108z"/><path d="m69.424 55.222q-1.5817 0-2.6998-0.89994-1.0908-0.92721-1.6635-2.8635-0.54542-1.9362-0.54542-4.9633 0-2.918 0.54542-4.8542 0.57269-1.9362 1.6635-2.8907 1.1181-0.95448 2.6998-0.95448 1.609 0 2.6998 0.95448t1.6635 2.8907 0.57269 4.8542q0 3.0271-0.57269 4.9633t-1.6635 2.8635q-1.0908 0.89994-2.6998 0.89994zm0-1.8544q0.92721 0 1.5544-0.68178 0.6545-0.68178 1.009-2.1817 0.35452-1.5272 0.35452-4.0088 0-2.3453-0.35452-3.8452-0.35452-1.5272-1.009-2.2635-0.62723-0.73632-1.5544-0.73632-0.87267 0-1.5544 0.73632-0.6545 0.73632-1.009 2.2635-0.32725 1.4999-0.32725 3.8452 0 2.4817 0.32725 4.0088 0.35452 1.4999 1.009 2.1817 0.68178 0.68178 1.5544 0.68178z"/><path d="m75.86 37.932h1.9635l5.1269 11.754-0.02727-11.754h2.0726v0.1909q-0.16363 0.16363-0.21817 0.35452-0.02727 0.1909-0.02727 0.6545v15.79h-1.6635l-5.3724-12.517v12.517h-1.8544z"/><path d="m86.986 54.922v-17.017h8.5358v1.8817h-6.5723v5.3178h5.3997v1.909h-5.3997v6.0269h6.5178v1.8817z"/></g></g><g transform="translate(0 -.50453)" fill="none"><g transform="translate(-11.465 2.2498)"><circle cx="29.132" cy="32.007" r="4.4848" stroke="#616262" stroke-width=".87"/><circle cx="29.132" cy="32.007" r="9.9663" stroke="#f37726" stroke-width="2.5"/><circle cx="29.132" cy="32.007" r="7.2654" stroke="#9e9e9e" stroke-width=".5"/></g><g transform="matrix(.82163 0 0 .82163 2.8913 -12.473)"><circle cx="29.132" cy="32.007" r="4.4848" stroke="#616262" stroke-width=".87"/><circle cx="29.132" cy="32.007" r="9.9663" stroke="#f37726" stroke-width="2.5"/><circle cx="29.132" cy="32.007" r="7.2654" stroke="#9e9e9e" stroke-width=".5"/></g><g transform="matrix(.48907 0 0 .48907 -4.1902 1.2197)"><circle cx="29.132" cy="32.007" r="4.4848" stroke="#616262" stroke-width=".87"/><circle cx="29.132" cy="32.007" r="9.9663" stroke="#f37726" stroke-width="2.5"/><circle cx="29.132" cy="32.007" r="7.2654" stroke="#9e9e9e" stroke-width=".5"/></g></g></g></svg>
